Coordinates
version=1
nRows=14
nColumns=40
inDegrees=yes

Units are S.I. units (second, meters, Newtons, ...)
Angles are in degrees.

endheader
time	pelvis_tilt	pelvis_list	pelvis_rotation	pelvis_tx	pelvis_ty	pelvis_tz	hip_flexion_r	hip_adduction_r	hip_rotation_r	knee_angle_r	knee_angle_r_beta	ankle_angle_r	subtalar_angle_r	mtp_angle_r	hip_flexion_l	hip_adduction_l	hip_rotation_l	knee_angle_l	knee_angle_l_beta	ankle_angle_l	subtalar_angle_l	mtp_angle_l	lumbar_extension	lumbar_bending	lumbar_rotation	arm_flex_r	arm_add_r	arm_rot_r	elbow_flex_r	pro_sup_r	wrist_flex_r	wrist_dev_r	arm_flex_l	arm_add_l	arm_rot_l	elbow_flex_l	pro_sup_l	wrist_flex_l	wrist_dev_l
      0.44000000	     -4.89014066	      2.95170870	     -0.06664936	     -0.84045181	      0.94358595	     -0.96038536	     -1.11743446	     -1.17591747	    -17.28173904	    -13.41098523	     -0.23406585	     12.19792275	     -0.24941808	     -7.02325658	     29.34927120	      3.35932124	     17.71935557	    -24.05190889	     -0.41978500	      1.42998416	     10.56791771	     11.59309562	     -4.01839769	     -4.39933146	      7.23907390	      7.33542323	    -12.90508714	    -10.74119607	     25.14850849	     89.95437384	      0.00000000	      0.00000000	     -9.95118904	     11.94964803	      8.91862460	     15.09869978	     89.95437384	      0.00000000	      0.00000000
      0.45000000	     -4.58658192	      2.90983113	     -0.61893037	     -0.82913344	      0.94207756	     -0.96092509	     -2.33608223	     -1.29339085	    -17.66241898	    -13.14147664	     -0.22936204	     12.46390885	      0.86838842	     -8.07772144	     29.31126953	      3.64234588	     18.66490343	    -21.35013062	     -0.37263008	      0.36598375	      9.40289421	     11.45586251	     -4.35689777	     -4.38090008	      7.70169457	      7.95405890	    -13.19982377	     -9.79842914	     25.93472076	     89.95437384	      0.00000000	      0.00000000	    -10.61535056	     11.87707248	      9.50881096	     14.84066172	     89.95437384	      0.00000000	      0.00000000
      0.46000000	     -4.79645345	      2.54913508	     -0.93573204	     -0.81803191	      0.93940087	     -0.96165458	     -2.95804461	     -0.95678012	    -18.09278368	    -12.88704369	     -0.22492134	     12.90984616	      0.89095119	     -8.22432055	     30.22684659	      4.18254096	     19.20488407	    -19.55302920	     -0.34126474	      0.32661476	      9.16273376	     11.51479176	     -4.09712822	     -4.00396493	      8.05500626	      8.63816752	    -13.34878134	     -9.69264634	     26.33229295	     89.95437384	      0.00000000	      0.00000000	    -11.28022001	     11.86362712	      9.52830891	     14.46546237	     89.95437384	      0.00000000	      0.00000000
      0.47000000	     -4.22524138	      2.85378416	     -1.79507844	     -0.80632836	      0.93812712	     -0.96201749	     -4.41736765	     -1.53122296	    -18.08602692	    -12.71686196	     -0.22195111	     13.16208872	      2.11010840	     -9.11318147	     29.46086215	      4.20677778	     20.56185738	    -16.43957250	     -0.28692467	     -1.07493860	      6.32030096	     11.47804549	     -4.71359858	     -4.40324023	      8.65726307	      9.26628602	    -13.62643924	     -8.47443800	     27.22988621	     89.95437384	      0.00000000	      0.00000000	    -11.98149333	     11.77025100	     10.31019483	     14.35575254	     89.95437384	      0.00000000	      0.00000000
      0.48000000	     -4.06965863	      2.80424879	     -2.35393680	     -0.79455664	      0.93585090	     -0.96269775	     -5.39069676	     -1.75630970	    -18.74562265	    -12.66557570	     -0.22105600	     13.55133839	      3.71054725	    -10.73212318	     29.63078100	      4.60843848	     21.67753918	    -14.54719964	     -0.25389653	     -1.60818635	      3.43910865	     10.57663710	     -4.84174590	     -4.40050965	      9.12700394	      9.86393854	    -13.83079490	     -7.90996713	     27.83531449	     89.95437384	      0.00000000	      0.00000000	    -12.62010441	     11.66559213	     11.02470994	     14.11661700	     89.95437384	      0.00000000	      0.00000000
      0.49000000	     -4.23572714	      2.56038800	     -2.82597077	     -0.78308370	      0.93304149	     -0.96356288	     -6.02134481	     -1.66049225	    -18.89950124	    -12.59665469	     -0.21985310	     13.80765492	      3.86160415	    -10.91525341	     30.24359531	      5.02272359	     21.72999525	    -12.91363636	     -0.22538547	     -1.52980853	      2.59063450	     10.52976756	     -4.61358310	     -4.15101619	      9.57158004	     10.43156897	    -13.95471752	     -7.76153348	     28.31848252	     89.95437384	      0.00000000	      0.00000000	    -13.26226912	     11.61766706	     11.02137536	     13.89972230	     89.95437384	      0.00000000	      0.00000000
      0.50000000	     -3.73951498	      2.75071917	     -3.55540759	     -0.77059488	      0.93127075	     -0.96414868	     -7.35045634	     -2.29408831	    -19.55897592	    -12.64199670	     -0.22064447	     13.81908621	      5.72535613	    -13.34165131	     29.88258793	      5.36141667	     23.45064341	    -11.36344892	     -0.19832960	     -2.45046051	     -1.46997111	      9.44580008	     -5.05010765	     -4.45712166	     10.06664913	     10.96140998	    -14.07842168	     -7.15397175	     29.03061804	     89.95437384	      0.00000000	      0.00000000	    -13.96462687	     11.58329132	     11.26256286	     13.80628485	     89.95437384	      0.00000000	      0.00000000
      0.51000000	     -3.85609732	      2.62435014	     -4.03521956	     -0.75863304	      0.92856601	     -0.96504338	     -8.02625260	     -2.38221532	    -19.74030543	    -12.58990304	     -0.21973526	     14.02162651	      5.71766519	    -13.40544746	     30.49360924	      5.73791451	     23.40314337	    -10.52928887	     -0.18377076	     -2.30839935	     -1.79937460	      9.38658816	     -4.83624783	     -4.36086829	     10.42678956	     11.52515850	    -14.07270926	     -7.09326939	     29.39736639	     89.95437384	      0.00000000	      0.00000000	    -14.55371211	     11.52359837	     11.27809086	     13.52761513	     89.95437384	      0.00000000	      0.00000000
      0.52000000	     -3.72346312	      2.61923919	     -4.70300398	     -0.74633728	      0.92634247	     -0.96594884	     -8.90809342	     -2.70625723	    -19.30896266	    -12.69422741	     -0.22155606	     14.07010294	      6.25039385	    -13.63431245	     30.32351266	      5.93801859	     22.90936782	     -9.07717708	     -0.15842663	     -2.43871382	     -3.22974461	      9.30137324	     -4.88523512	     -4.40644852	     10.90681040	     12.08493431	    -14.13029225	     -6.94146640	     29.80086618	     89.95437384	      0.00000000	      0.00000000	    -15.15266037	     11.42347619	     11.39645747	     13.41314298	     89.95437384	      0.00000000	      0.00000000
      0.53000000	     -3.48750621	      2.71838565	     -5.32735599	     -0.73337385	      0.92435471	     -0.96695006	     -9.96656583	     -3.21042272	    -19.29591283	    -12.73466158	     -0.22226177	     14.17302580	      6.74101461	    -13.82744765	     30.18341570	      6.11765009	     22.92975751	     -8.40956409	     -0.14677458	     -2.51528760	     -3.93679797	      9.18380331	     -4.95556453	     -4.58356981	     11.33833797	     12.49529976	    -14.09513404	     -6.77483876	     30.21980751	     89.95437384	      0.00000000	      0.00000000	    -15.70192569	     11.35305655	     11.45832835	     13.20874758	     89.95437384	      0.00000000	      0.00000000
      0.54000000	     -3.53599230	      2.74924893	     -5.74117199	     -0.72048764	      0.92198216	     -0.96838360	    -10.55129952	     -3.66226736	    -19.14029068	    -13.17201738	     -0.22989507	     13.91953616	      6.61097609	    -13.63537956	     30.63066487	      6.35082358	     22.52877957	     -8.66176388	     -0.15117630	     -2.54908652	     -3.88646406	      9.03379453	     -4.72350452	     -4.63345252	     11.41698908	     12.83872997	    -13.96175200	     -6.78775973	     30.77289193	     89.95437384	      0.00000000	      0.00000000	    -16.41536144	     11.25453851	     11.40471787	     13.15196406	     89.95437384	      0.00000000	      0.00000000
      0.55000000	     -2.73052137	      3.14954352	     -6.64905027	     -0.70645767	      0.92133056	     -0.96937101	    -12.18152064	     -4.76916156	    -18.70435801	    -13.23638454	     -0.23101849	     13.73388537	      8.18173636	    -13.98896721	     29.52257396	      6.20264008	     22.54369320	     -8.45304516	     -0.14753347	     -1.98867029	     -4.08396615	      8.67229999	     -5.30836762	     -5.20259346	     12.11907454	     13.12244708	    -13.89168758	     -6.83431020	     31.17121750	     89.95437384	      0.00000000	      0.00000000	    -16.62225412	     11.20048062	     11.34109280	     12.57085720	     89.95437384	      0.00000000	      0.00000000
      0.56000000	     -2.02842430	      3.99199124	     -7.32049086	     -0.69204058	      0.92051528	     -0.97144918	    -13.36016542	     -6.74228871	    -20.10680115	    -14.06225506	     -0.24543265	     13.45875519	     11.52952343	    -15.20501830	     28.58822901	      5.39125012	     22.55304353	     -8.50467402	     -0.14843456	     -2.16025952	     -3.25562692	      7.81842157	     -5.71006925	     -6.21925179	     12.42277288	     13.11701814	    -13.70404638	     -7.13845967	     31.96595733	     89.95437384	      0.00000000	      0.00000000	    -17.22280910	     11.17008458	     11.09961107	     12.68067191	     89.95437384	      0.00000000	      0.00000000
      0.57000000	     -2.10370301	      4.05590271	     -7.71982354	     -0.67790377	      0.91885243	     -0.97338883	    -13.80921120	     -7.36371096	    -19.71402017	    -14.71131994	     -0.25676097	     12.95606217	     11.19765618	    -14.89386648	     28.74804443	      5.49276313	     21.88681876	     -9.38310778	     -0.16376612	     -2.19009161	     -2.96930402	      7.60306177	     -5.30672063	     -6.26911109	     12.55814159	     13.14082849	    -13.57806430	     -7.11344587	     32.37248818	     89.95437384	      0.00000000	      0.00000000	    -17.81265398	     11.05394320	     10.98146343	     12.62032994	     89.95437384	      0.00000000	      0.00000000
